<svg width="313" height="53" viewBox="0 0 313 53" fill="none" xmlns="http://www.w3.org/2000/svg">
<path d="M7.64986 8.83337V17.6666V26.4999V35.3333L15.2998 39.7499L22.9497 44.1666L30.5996 48.5833L22.9497 53L15.2998 48.5833L7.64986 44.1666L0 39.75L1.4591e-05 30.9166L3.16139e-05 22.0833L4.6205e-05 13.25L7.64986 8.83337Z" fill="#5C27ED"/>
<path fill-rule="evenodd" clip-rule="evenodd" d="M45.8994 13.25L38.2495 8.83333L30.5996 4.41665L22.9498 0L15.2998 4.41669L15.2998 13.2499L15.2998 22.0833L15.2998 30.9167L22.9497 35.3333V26.5L30.5996 30.9167L38.2495 35.3334V44.1667L45.8994 39.7501V35.3334V30.9167V22.0833V13.25ZM38.2495 26.5V17.6667L30.5996 13.25L22.9497 8.83332V17.6666L30.5996 22.0833L38.2495 26.5Z" fill="#3D218B"/>
<path d="M300.259 13.247H312.131V15.9728H304.001V19.6317H311.34V22.3575H304.001V26.4585H312.371V29.1843H300.259V13.247Z" fill="#3D218B"/>
<path d="M291.003 29.1843C286.549 29.1843 284.322 27.6687 284.322 24.6377V13.247H288.031V24.6377C288.031 25.3471 288.253 25.8388 288.697 26.1129C289.157 26.3709 289.941 26.4998 291.051 26.4998C292.145 26.4998 292.906 26.3709 293.334 26.1129C293.778 25.8388 293.999 25.3471 293.999 24.6377V13.247H297.709V24.6377C297.709 27.6687 295.474 29.1843 291.003 29.1843Z" fill="#3D218B"/>
<path d="M273.71 29.1843C272.861 29.1843 272.075 29.1287 271.352 29.0175C270.645 28.9063 269.906 28.7158 269.136 28.4458C268.303 28.1599 267.651 27.6993 267.179 27.0641C266.708 26.4129 266.472 25.6268 266.472 24.7056V17.94C266.472 17.1777 266.637 16.4948 266.967 15.8913C267.313 15.2878 267.753 14.8113 268.287 14.4619C268.759 14.1602 269.34 13.906 270.032 13.6996C270.723 13.4931 271.368 13.3661 271.965 13.3184C272.515 13.2708 273.097 13.247 273.71 13.247C274.433 13.247 275.061 13.2787 275.596 13.3422C276.13 13.3899 276.727 13.5011 277.387 13.6758C278.142 13.8981 278.763 14.1681 279.25 14.4857C279.737 14.8034 280.146 15.2481 280.476 15.8198C280.822 16.4074 280.995 17.1142 280.995 17.94V22.1566C280.995 24.5071 280.35 25.8809 279.061 26.2779H282.409V28.946H277.387C277.215 28.946 276.68 28.9857 275.784 29.0652C274.888 29.1446 274.197 29.1843 273.71 29.1843ZM273.757 26.54C274.275 26.54 274.708 26.5241 275.053 26.4923C275.415 26.4447 275.784 26.3653 276.161 26.2541C276.539 26.1429 276.822 25.9603 277.01 25.7062C277.215 25.4362 277.317 25.1027 277.317 24.7056V17.9162C277.317 17.1856 277.026 16.6695 276.444 16.3677C275.863 16.0501 274.959 15.8913 273.733 15.8913C272.507 15.8913 271.603 16.0421 271.022 16.3439C270.44 16.6456 270.15 17.1697 270.15 17.9162V24.7056C270.15 25.1027 270.252 25.4362 270.456 25.7062C270.66 25.9603 270.959 26.1429 271.352 26.2541C271.729 26.3653 272.091 26.4447 272.437 26.4923C272.798 26.5241 273.238 26.54 273.757 26.54Z" fill="#3D218B"/>
<path d="M251.809 13.247H258.573C260.58 13.247 262.031 13.5089 262.927 14.0328C263.823 14.5403 264.27 15.3998 264.27 16.6112V19.4107C264.27 20.3438 263.954 21.0805 263.321 21.6208C262.703 22.1447 261.877 22.4803 260.842 22.6276L265.197 29.1843H261.028L257.09 22.9223H255.423V29.1843H251.809V13.247ZM258.526 20.393C259.376 20.393 259.955 20.2784 260.263 20.0492C260.572 19.8036 260.727 19.337 260.727 18.6494V17.5198C260.727 16.9305 260.557 16.5294 260.217 16.3165C259.893 16.0873 259.329 15.9728 258.526 15.9728H255.423V20.393H258.526Z" fill="#3D218B"/>
<path d="M237.147 13.247H249.02V15.9728H240.889V19.6317H248.228V22.3575H240.889V26.4585H249.26V29.1843H237.147V13.247Z" fill="#3D218B"/>
<path d="M227.892 29.1843C223.437 29.1843 221.21 27.6687 221.21 24.6377V13.247H224.919V24.6377C224.919 25.3471 225.141 25.8388 225.585 26.1129C226.045 26.3709 226.83 26.4998 227.939 26.4998C229.033 26.4998 229.794 26.3709 230.222 26.1129C230.666 25.8388 230.888 25.3471 230.888 24.6377V13.247H234.597V24.6377C234.597 27.6687 232.362 29.1843 227.892 29.1843Z" fill="#3D218B"/>
<path d="M210.598 29.1843C209.749 29.1843 208.963 29.1287 208.24 29.0175C207.533 28.9063 206.794 28.7158 206.024 28.4458C205.191 28.1599 204.539 27.6993 204.067 27.0641C203.596 26.4129 203.36 25.6268 203.36 24.7056V17.94C203.36 17.1777 203.525 16.4948 203.855 15.8913C204.201 15.2878 204.641 14.8113 205.175 14.4619C205.647 14.1602 206.228 13.906 206.92 13.6996C207.612 13.4931 208.256 13.3661 208.853 13.3184C209.403 13.2708 209.985 13.247 210.598 13.247C211.321 13.247 211.95 13.2787 212.484 13.3422C213.018 13.3899 213.616 13.5011 214.276 13.6758C215.03 13.8981 215.651 14.1681 216.138 14.4857C216.625 14.8034 217.034 15.2481 217.364 15.8198C217.71 16.4074 217.883 17.1142 217.883 17.94V22.1566C217.883 24.5071 217.238 25.8809 215.95 26.2779H219.297V28.946H214.276C214.103 28.946 213.568 28.9857 212.673 29.0652C211.777 29.1446 211.085 29.1843 210.598 29.1843ZM210.645 26.54C211.164 26.54 211.596 26.5241 211.942 26.4923C212.303 26.4447 212.673 26.3653 213.05 26.2541C213.427 26.1429 213.71 25.9603 213.898 25.7062C214.103 25.4362 214.205 25.1027 214.205 24.7056V17.9162C214.205 17.1856 213.914 16.6695 213.333 16.3677C212.751 16.0501 211.847 15.8913 210.621 15.8913C209.395 15.8913 208.492 16.0421 207.91 16.3439C207.329 16.6456 207.038 17.1697 207.038 17.9162V24.7056C207.038 25.1027 207.14 25.4362 207.344 25.7062C207.549 25.9603 207.847 26.1429 208.24 26.2541C208.617 26.3653 208.979 26.4447 209.325 26.4923C209.686 26.5241 210.126 26.54 210.645 26.54Z" fill="#3D218B"/>
<path d="M194.105 29.1843C189.65 29.1843 187.423 27.6687 187.423 24.6377V13.247H191.132V24.6377C191.132 25.3471 191.354 25.8388 191.798 26.1129C192.258 26.3709 193.042 26.4998 194.152 26.4998C195.246 26.4998 196.007 26.3709 196.435 26.1129C196.879 25.8388 197.101 25.3471 197.101 24.6377V13.247H200.81V24.6377C200.81 27.6687 198.575 29.1843 194.105 29.1843Z" fill="#3D218B"/>
<path d="M172.76 13.247H178.794C180.216 13.247 181.309 13.3616 182.074 13.5907C182.854 13.8036 183.405 14.1556 183.726 14.6467C184.047 15.1215 184.208 15.7927 184.208 16.6603V18.6249C184.208 19.0669 184.039 19.4844 183.703 19.8773C183.382 20.2702 182.999 20.5403 182.556 20.6876V20.8104C183.137 20.8759 183.665 21.146 184.139 21.6208C184.628 22.0792 184.873 22.5949 184.873 23.1679V25.6235C184.873 26.9169 184.391 27.8336 183.428 28.3739C182.464 28.9141 180.973 29.1843 178.954 29.1843H172.76V13.247ZM178.794 19.7299C179.36 19.7299 179.78 19.6808 180.055 19.5826C180.331 19.4844 180.514 19.3288 180.606 19.116C180.713 18.8868 180.767 18.5594 180.767 18.1337V17.3479C180.767 16.9714 180.721 16.6931 180.629 16.513C180.537 16.3165 180.346 16.1774 180.055 16.0955C179.78 16.0137 179.337 15.9728 178.725 15.9728H176.339V19.7299H178.794ZM178.885 26.4585C179.757 26.4585 180.377 26.3521 180.744 26.1392C181.111 25.9264 181.294 25.5826 181.294 25.1079V23.8309C181.294 23.2415 181.149 22.8241 180.858 22.5785C180.583 22.3329 180.086 22.2102 179.367 22.2102H176.339V26.4585H178.885Z" fill="#3D218B"/>
<path d="M159.373 13.247H163.142V26.4585H170.848V29.1843H159.373V13.247Z" fill="#3D218B"/>
<path d="M147.284 13.247H151.844L157.461 29.1843H153.668L152.276 24.9851H146.588L145.22 29.1843H141.523L147.284 13.247ZM151.46 22.4312L149.492 16.4393H149.396L147.428 22.4312H151.46Z" fill="#3D218B"/>
<path d="M127.304 29.1843C125.89 29.1843 124.141 29.0413 122.058 28.7555V25.9206C124.643 26.3335 126.407 26.54 127.35 26.54C129.326 26.54 130.315 26.0079 130.315 24.9438V23.9433C130.315 23.4351 130.17 23.046 129.882 22.776C129.608 22.506 129.106 22.371 128.376 22.371H126.642C123.388 22.371 121.761 21.0211 121.761 18.3212V17.1777C121.761 15.8277 122.301 14.8351 123.381 14.1999C124.46 13.5646 126.171 13.247 128.513 13.247C129.729 13.247 131.273 13.3502 133.143 13.5566V16.3201C130.847 16.0342 129.266 15.8913 128.399 15.8913C127.198 15.8913 126.392 15.9945 125.981 16.201C125.54 16.4233 125.319 16.7727 125.319 17.2492V18.345C125.319 19.155 125.973 19.5599 127.281 19.5599H129.06C130.748 19.5599 131.973 19.8855 132.733 20.5367C133.493 21.1878 133.873 22.1804 133.873 23.5145V24.5389C133.873 26.3811 133.242 27.6279 131.98 28.279C131.372 28.6125 130.695 28.8428 129.95 28.9699C129.22 29.1128 128.338 29.1843 127.304 29.1843Z" fill="#3D218B"/>
<path d="M110.309 13.247H114.87L120.486 29.1843H116.694L115.302 24.9851H109.613L108.245 29.1843H104.549L110.309 13.247ZM114.486 22.4312L112.517 16.4393H112.421L110.453 22.4312H114.486Z" fill="#3D218B"/>
<path d="M97.6586 29.1843C96.9633 29.1843 96.3391 29.1525 95.786 29.089C95.2488 29.0254 94.6562 28.9063 94.0083 28.7316C93.2814 28.5411 92.6809 28.2949 92.2068 27.9931C91.7328 27.6755 91.3377 27.2388 91.0217 26.6829C90.6898 26.127 90.5239 25.4679 90.5239 24.7056V17.9162C90.5239 14.8034 92.9021 13.247 97.6586 13.247C98.8754 13.247 100.503 13.4217 102.541 13.7711V16.5583C100.708 16.1136 99.0966 15.8913 97.706 15.8913C97.1213 15.8913 96.6631 15.9071 96.3312 15.9389C96.0152 15.9707 95.6833 16.0501 95.3357 16.1771C94.593 16.4312 94.2216 16.995 94.2216 17.8685V24.4436C94.2216 25.8412 95.4937 26.54 98.0378 26.54C99.1282 26.54 100.661 26.3097 102.636 25.8491V28.6602C100.945 29.0096 99.2862 29.1843 97.6586 29.1843Z" fill="#3D218B"/>
<path d="M81.2684 29.1843C76.8139 29.1843 74.5866 27.6687 74.5866 24.6377V13.247H78.2961V24.6377C78.2961 25.3471 78.518 25.8388 78.9619 26.1129C79.4216 26.3709 80.2063 26.4998 81.3159 26.4998C82.4097 26.4998 83.1707 26.3709 83.5987 26.1129C84.0425 25.8388 84.2645 25.3471 84.2645 24.6377V13.247H87.9739V24.6377C87.9739 27.6687 85.7387 29.1843 81.2684 29.1843Z" fill="#3D218B"/>
<path d="M61.1993 13.247H64.9679V26.4585H72.6741V29.1843H61.1993V13.247Z" fill="#3D218B"/>
<path d="M179.916 39.7475L178.049 36.5666C177.914 36.712 177.773 36.8606 177.625 37.0126C177.484 37.1645 177.336 37.3164 177.182 37.4684V39.7475H176.345V33.0092H177.182V36.5072C177.785 35.8796 178.289 35.285 178.693 34.7235C179.098 34.162 179.441 33.5906 179.723 33.0092H180.628C180.34 33.5906 180.038 34.1191 179.723 34.5947C179.415 35.0637 179.062 35.5328 178.665 36.0018L180.936 39.7475H179.916Z" fill="#5C27ED"/>
<path d="M171.818 37.1003C171.818 37.7036 171.936 38.1688 172.174 38.4961C172.418 38.817 172.79 38.9774 173.29 38.9774C173.509 38.9774 173.724 38.9518 173.935 38.9004C174.147 38.8491 174.401 38.7592 174.696 38.6309L174.975 39.3432C174.66 39.4844 174.362 39.5871 174.08 39.6512C173.797 39.7154 173.525 39.7475 173.261 39.7475C172.504 39.7475 171.93 39.5101 171.538 39.0352C171.147 38.5603 170.951 37.9153 170.951 37.1003V35.6564C170.951 34.8414 171.147 34.1964 171.538 33.7216C171.93 33.2467 172.504 33.0092 173.261 33.0092C173.525 33.0092 173.797 33.0413 174.08 33.1055C174.368 33.1697 174.66 33.2723 174.956 33.4135L174.686 34.1355C174.166 33.9044 173.701 33.7889 173.29 33.7889C172.79 33.7889 172.418 33.9494 172.174 34.2702C171.936 34.5911 171.818 35.0532 171.818 35.6564V37.1003Z" fill="#5C27ED"/>
<path d="M169.347 39.7475L168.856 38.1818H166.373L165.882 39.7475H165.064L167.239 33.0092H168.029L170.214 39.7475H169.347ZM166.979 36.2396L166.613 37.399H168.606L168.24 36.2396L167.615 34.1587L166.979 36.2396Z" fill="#5C27ED"/>
<path d="M160.719 33.8218V33.0092H165.368V33.8218H163.462V39.7475H162.625V33.8218H160.719Z" fill="#5C27ED"/>
<path d="M158.083 38.9967C158.487 38.9967 158.798 38.91 159.016 38.7368C159.235 38.5571 159.344 38.2972 159.344 37.957C159.344 37.6747 159.267 37.4372 159.113 37.2447C158.965 37.0522 158.721 36.9046 158.381 36.8019L157.601 36.5709C157.114 36.4233 156.754 36.2019 156.523 35.9067C156.292 35.6051 156.177 35.2361 156.177 34.7997C156.177 34.466 156.241 34.1644 156.369 33.8948C156.504 33.6253 156.716 33.4103 157.004 33.2499C157.3 33.0894 157.685 33.0092 158.16 33.0092C158.448 33.0092 158.747 33.0445 159.055 33.1151C159.363 33.1793 159.674 33.2852 159.989 33.4328L159.719 34.1547C159.411 34.02 159.132 33.9237 158.882 33.8659C158.638 33.8018 158.403 33.7697 158.179 33.7697C157.813 33.7697 157.527 33.8467 157.322 34.0007C157.123 34.1483 157.024 34.3954 157.024 34.7419C157.024 34.9922 157.091 35.204 157.226 35.3772C157.361 35.5441 157.601 35.6821 157.948 35.7912L158.728 36.0222C159.703 36.311 160.191 36.9335 160.191 37.8897C160.191 38.4416 160.024 38.8908 159.69 39.2373C159.356 39.5774 158.821 39.7475 158.083 39.7475C157.781 39.7475 157.46 39.7122 157.12 39.6416C156.786 39.5646 156.44 39.4459 156.08 39.2855L156.34 38.5731C156.68 38.7271 156.985 38.8362 157.255 38.9004C157.531 38.9646 157.807 38.9967 158.083 38.9967Z" fill="#5C27ED"/>
<path d="M155.456 38.9449V39.7475H151.875V33.0092H152.713V38.9449H155.456Z" fill="#5C27ED"/>
<path d="M150.587 38.9449V39.7475H147.006V33.0092H147.843V38.9449H150.587Z" fill="#5C27ED"/>
<path d="M140.629 33.0092H141.495V37.267C141.495 37.8009 141.604 38.2176 141.823 38.517C142.047 38.8165 142.394 38.9663 142.862 38.9663C143.337 38.9663 143.684 38.8165 143.902 38.517C144.12 38.2176 144.229 37.8009 144.229 37.267V33.0092H145.095V37.267C145.095 38.0418 144.909 38.6505 144.537 39.0932C144.165 39.5294 143.607 39.7475 142.862 39.7475C142.111 39.7475 141.55 39.5294 141.178 39.0932C140.812 38.6505 140.629 38.0418 140.629 37.267V33.0092Z" fill="#5C27ED"/>
<path d="M139.128 36.9135H136.751V39.7475H135.913V33.0092H139.417V33.8218H136.751V36.1009H139.128V36.9135Z" fill="#5C27ED"/>
<path d="M125.786 37.1116V39.7475H124.948V33.0092H126.999C127.615 33.0092 128.09 33.1777 128.424 33.5146C128.764 33.8449 128.934 34.2875 128.934 34.8424V35.2685C128.934 35.6649 128.844 36.0084 128.664 36.2991C128.491 36.5898 128.241 36.8045 127.913 36.9432C128.189 37.399 128.446 37.8614 128.683 38.3305C128.921 38.7995 129.139 39.2719 129.338 39.7475H128.375C128.01 38.8491 127.583 37.9705 127.095 37.1116H125.786ZM126.999 33.802H125.786V36.3189H126.999C127.326 36.3189 127.586 36.2264 127.779 36.0414C127.971 35.8499 128.067 35.5922 128.067 35.2685V34.8424C128.067 34.5121 127.971 34.2578 127.779 34.0794C127.586 33.8944 127.326 33.802 126.999 33.802Z" fill="#5C27ED"/>
<path d="M123.947 35.6564V37.0907C123.947 37.9057 123.742 38.5539 123.331 39.0352C122.927 39.5101 122.343 39.7475 121.579 39.7475C120.815 39.7475 120.228 39.5101 119.818 39.0352C119.413 38.5539 119.211 37.9057 119.211 37.0907V35.6564C119.211 34.8478 119.413 34.2061 119.818 33.7312C120.228 33.2499 120.815 33.0092 121.579 33.0092C122.343 33.0092 122.927 33.2499 123.331 33.7312C123.742 34.2061 123.947 34.8478 123.947 35.6564ZM123.081 35.6564C123.081 35.0596 122.952 34.6007 122.696 34.2799C122.445 33.9526 122.073 33.7889 121.579 33.7889C121.091 33.7889 120.719 33.9526 120.462 34.2799C120.206 34.6007 120.077 35.0596 120.077 35.6564V37.0907C120.077 37.6939 120.206 38.1592 120.462 38.4865C120.719 38.8138 121.091 38.9774 121.579 38.9774C122.073 38.9774 122.445 38.8138 122.696 38.4865C122.952 38.1592 123.081 37.6939 123.081 37.0907V35.6564Z" fill="#5C27ED"/>
<path d="M114.111 39.7475V33.0092H116.142C116.893 33.0092 117.471 33.2437 117.875 33.7128C118.279 34.1752 118.481 34.816 118.481 35.6352V37.1116C118.481 37.9374 118.279 38.5848 117.875 39.0539C117.471 39.5163 116.893 39.7475 116.142 39.7475H114.111ZM116.123 33.8218H114.949V38.9449H116.123C117.118 38.9449 117.615 38.3338 117.615 37.1116V35.6352C117.615 34.4262 117.118 33.8218 116.123 33.8218Z" fill="#5C27ED"/>
<path d="M112.669 38.9449V39.7475H109.011V33.0092H112.573V33.8218H109.849V35.9324H112.284V36.745H109.849V38.9449H112.669Z" fill="#5C27ED"/>
<path d="M107.671 33.0092L105.582 39.7475H104.735L102.636 33.0092H103.522L104.561 36.4279L105.187 38.5881L105.823 36.418L106.843 33.0092H107.671Z" fill="#5C27ED"/>
<path d="M102.392 38.9449V39.7475H98.8113V33.0092H99.6488V38.9449H102.392Z" fill="#5C27ED"/>
<path d="M97.8099 35.6564V37.0907C97.8099 37.9057 97.6046 38.5539 97.1939 39.0352C96.7896 39.5101 96.2056 39.7475 95.4419 39.7475C94.6782 39.7475 94.091 39.5101 93.6803 39.0352C93.276 38.5539 93.0739 37.9057 93.0739 37.0907V35.6564C93.0739 34.8478 93.276 34.2061 93.6803 33.7312C94.091 33.2499 94.6782 33.0092 95.4419 33.0092C96.2056 33.0092 96.7896 33.2499 97.1939 33.7312C97.6046 34.2061 97.8099 34.8478 97.8099 35.6564ZM96.9436 35.6564C96.9436 35.0596 96.8152 34.6007 96.5585 34.2799C96.3083 33.9526 95.936 33.7889 95.4419 33.7889C94.9542 33.7889 94.582 33.9526 94.3253 34.2799C94.0686 34.6007 93.9402 35.0596 93.9402 35.6564V37.0907C93.9402 37.6939 94.0686 38.1592 94.3253 38.4865C94.582 38.8138 94.9542 38.9774 95.4419 38.9774C95.936 38.9774 96.3083 38.8138 96.5585 38.4865C96.8152 38.1592 96.9436 37.6939 96.9436 37.0907V35.6564Z" fill="#5C27ED"/>
<path d="M92.3709 33.0092L90.282 39.7475H89.4349L87.3364 33.0092H88.222L89.2617 36.4279L89.8874 38.5881L90.5227 36.418L91.5431 33.0092H92.3709Z" fill="#5C27ED"/>
<path d="M81.599 39.7475V33.0092H82.475C83.059 33.868 83.5948 34.7334 84.0825 35.6054C84.5767 36.4709 85.0387 37.3759 85.4687 38.3206L85.3724 35.7442V33.0092H86.1907V39.7475H85.3147C84.8655 38.783 84.4002 37.8449 83.9189 36.9333C83.444 36.015 82.9242 35.1199 82.3595 34.2479L82.4172 36.9927V39.7475H81.599Z" fill="#5C27ED"/>
<path d="M80.157 38.9449V39.7475H76.4991V33.0092H80.0607V33.8218H77.3365V35.9324H79.7719V36.745H77.3365V38.9449H80.157Z" fill="#5C27ED"/>
<path d="M73.4014 38.9967C73.8057 38.9967 74.1169 38.91 74.3351 38.7368C74.5533 38.5571 74.6624 38.2972 74.6624 37.957C74.6624 37.6747 74.5854 37.4372 74.4314 37.2447C74.2838 37.0522 74.0399 36.9046 73.6998 36.8019L72.9201 36.5709C72.4323 36.4233 72.073 36.2019 71.8419 35.9067C71.6109 35.6051 71.4954 35.2361 71.4954 34.7997C71.4954 34.466 71.5596 34.1644 71.6879 33.8948C71.8227 33.6253 72.0344 33.4103 72.3232 33.2499C72.6184 33.0894 73.0035 33.0092 73.4784 33.0092C73.7672 33.0092 74.0656 33.0445 74.3736 33.1151C74.6816 33.1793 74.9929 33.2852 75.3073 33.4328L75.0378 34.1547C74.7298 34.02 74.4506 33.9237 74.2003 33.8659C73.9565 33.8018 73.7222 33.7697 73.4976 33.7697C73.1318 33.7697 72.8463 33.8467 72.6409 34.0007C72.442 34.1483 72.3425 34.3954 72.3425 34.7419C72.3425 34.9922 72.4099 35.204 72.5446 35.3772C72.6794 35.5441 72.9201 35.6821 73.2666 35.7912L74.0463 36.0222C75.0218 36.311 75.5095 36.9335 75.5095 37.8897C75.5095 38.4416 75.3426 38.8908 75.0089 39.2373C74.6752 39.5774 74.1394 39.7475 73.4014 39.7475C73.0997 39.7475 72.7789 39.7122 72.4387 39.6416C72.105 39.5646 71.7585 39.4459 71.3991 39.2855L71.659 38.5731C71.9992 38.7271 72.304 38.8362 72.5735 38.9004C72.8495 38.9646 73.1254 38.9967 73.4014 38.9967Z" fill="#5C27ED"/>
<path d="M70.5946 38.9449V39.7475H66.9367V33.0092H70.4983V33.8218H67.7741V35.9324H70.2096V36.745H67.7741V38.9449H70.5946Z" fill="#5C27ED"/>
<path d="M61.1993 39.7475V33.0092H63.2304C63.9812 33.0092 64.5588 33.2437 64.9631 33.7128C65.3674 34.1752 65.5695 34.816 65.5695 35.6352V37.1117C65.5695 37.9374 65.3674 38.5848 64.9631 39.0539C64.5588 39.5163 63.9812 39.7475 63.2304 39.7475H61.1993ZM63.2111 33.8218H62.0368V38.9449H63.2111C64.2058 38.9449 64.7032 38.3338 64.7032 37.1117V35.6352C64.7032 34.4262 64.2058 33.8218 63.2111 33.8218Z" fill="#5C27ED"/>
</svg>
