<svg width="259" height="156" viewBox="0 0 259 156" fill="none" xmlns="http://www.w3.org/2000/svg">
<path d="M97.6808 18.168V36.3356V54.5034V72.6713L113.415 81.7552L129.149 90.8392L144.882 99.9232L129.149 109.007L113.415 99.9232L81.9471 81.7553L81.9471 63.5874L81.9471 45.4195L81.9472 27.2518L97.6808 18.168Z" fill="#B89EFF"/>
<path fill-rule="evenodd" clip-rule="evenodd" d="M176.35 27.2519L160.616 18.1678L144.883 9.08389L129.149 0L113.415 9.08396L113.415 27.2517L113.415 45.4195L113.415 63.5874L129.149 72.6714V54.5035L144.882 63.5875L160.616 72.6714V90.8393L176.35 81.7554V72.6715V63.5875V45.4196V27.2519ZM160.616 54.5035V36.3357L144.882 27.2518L129.149 18.1678V36.3356L144.882 45.4195L160.616 54.5035Z" fill="#F8F7FC"/>
<path d="M245.842 124.741H258.051V127.544H249.689V131.307H257.237V134.11H249.689V138.328H258.298V141.131H245.842V124.741Z" fill="#F8F7FC"/>
<path d="M236.323 141.131C231.743 141.131 229.452 139.572 229.452 136.455V124.741H233.267V136.455C233.267 137.185 233.495 137.69 233.951 137.972C234.424 138.237 235.231 138.37 236.372 138.37C237.497 138.37 238.28 138.237 238.72 137.972C239.176 137.69 239.405 137.185 239.405 136.455V124.741H243.219V136.455C243.219 139.572 240.921 141.131 236.323 141.131Z" fill="#F8F7FC"/>
<path d="M218.539 141.131C217.666 141.131 216.858 141.073 216.115 140.959C215.387 140.845 214.628 140.649 213.836 140.371C212.979 140.077 212.308 139.604 211.823 138.95C211.338 138.281 211.096 137.472 211.096 136.525V129.567C211.096 128.783 211.266 128.081 211.605 127.461C211.961 126.84 212.413 126.35 212.963 125.991C213.448 125.68 214.046 125.419 214.757 125.207C215.468 124.994 216.131 124.864 216.745 124.815C217.311 124.766 217.909 124.741 218.539 124.741C219.283 124.741 219.929 124.774 220.479 124.839C221.028 124.888 221.642 125.003 222.321 125.182C223.097 125.411 223.736 125.688 224.237 126.015C224.738 126.342 225.158 126.799 225.497 127.387C225.853 127.991 226.031 128.718 226.031 129.567V133.904C226.031 136.321 225.368 137.734 224.043 138.142H227.485V140.886H222.321C222.143 140.886 221.594 140.926 220.673 141.008C219.751 141.09 219.04 141.131 218.539 141.131ZM218.588 138.411C219.121 138.411 219.565 138.395 219.921 138.362C220.293 138.313 220.673 138.232 221.061 138.117C221.448 138.003 221.739 137.815 221.933 137.554C222.143 137.276 222.249 136.933 222.249 136.525V129.543C222.249 128.792 221.95 128.261 221.351 127.951C220.753 127.624 219.824 127.461 218.563 127.461C217.303 127.461 216.373 127.616 215.775 127.926C215.177 128.236 214.878 128.775 214.878 129.543V136.525C214.878 136.933 214.983 137.276 215.193 137.554C215.403 137.815 215.711 138.003 216.115 138.117C216.503 138.232 216.874 138.313 217.23 138.362C217.602 138.395 218.054 138.411 218.588 138.411Z" fill="#F8F7FC"/>
<path d="M196.018 124.741H202.973C205.037 124.741 206.53 125.011 207.451 125.549C208.372 126.071 208.832 126.955 208.832 128.201V131.08C208.832 132.039 208.507 132.797 207.855 133.353C207.22 133.891 206.371 134.236 205.307 134.388L209.785 141.131H205.497L201.448 134.691H199.733V141.131H196.018V124.741ZM202.925 132.09C203.798 132.09 204.394 131.972 204.711 131.736C205.029 131.484 205.188 131.004 205.188 130.297V129.135C205.188 128.529 205.013 128.117 204.664 127.898C204.33 127.662 203.751 127.544 202.925 127.544H199.733V132.09H202.925Z" fill="#F8F7FC"/>
<path d="M180.939 124.741H193.149V127.544H184.787V131.307H192.335V134.11H184.787V138.328H193.395V141.131H180.939V124.741Z" fill="#F8F7FC"/>
<path d="M171.421 141.131C166.84 141.131 164.55 139.572 164.55 136.455V124.741H168.365V136.455C168.365 137.185 168.593 137.69 169.049 137.972C169.522 138.237 170.329 138.37 171.47 138.37C172.595 138.37 173.378 138.237 173.818 137.972C174.274 137.69 174.502 137.185 174.502 136.455V124.741H178.317V136.455C178.317 139.572 176.018 141.131 171.421 141.131Z" fill="#F8F7FC"/>
<path d="M153.637 141.131C152.764 141.131 151.956 141.073 151.212 140.959C150.485 140.845 149.725 140.649 148.933 140.371C148.077 140.077 147.406 139.604 146.921 138.95C146.436 138.281 146.194 137.472 146.194 136.525V129.567C146.194 128.783 146.364 128.081 146.703 127.461C147.059 126.84 147.511 126.35 148.061 125.991C148.546 125.68 149.144 125.419 149.855 125.207C150.566 124.994 151.229 124.864 151.843 124.815C152.409 124.766 153.007 124.741 153.637 124.741C154.38 124.741 155.027 124.774 155.576 124.839C156.126 124.888 156.74 125.003 157.419 125.182C158.195 125.411 158.833 125.688 159.334 126.015C159.835 126.342 160.256 126.799 160.595 127.387C160.951 127.991 161.129 128.718 161.129 129.567V133.904C161.129 136.321 160.466 137.734 159.14 138.142H162.583V140.886H157.419C157.241 140.886 156.692 140.926 155.77 141.008C154.849 141.09 154.138 141.131 153.637 141.131ZM153.685 138.411C154.219 138.411 154.663 138.395 155.019 138.362C155.391 138.313 155.77 138.232 156.158 138.117C156.546 138.003 156.837 137.815 157.031 137.554C157.241 137.276 157.346 136.933 157.346 136.525V129.543C157.346 128.792 157.047 128.261 156.449 127.951C155.851 127.624 154.922 127.461 153.661 127.461C152.4 127.461 151.471 127.616 150.873 127.926C150.275 128.236 149.976 128.775 149.976 129.543V136.525C149.976 136.933 150.081 137.276 150.291 137.554C150.501 137.815 150.808 138.003 151.212 138.117C151.6 138.232 151.972 138.313 152.328 138.362C152.699 138.395 153.152 138.411 153.685 138.411Z" fill="#F8F7FC"/>
<path d="M136.676 141.131C132.095 141.131 129.804 139.572 129.804 136.455V124.741H133.619V136.455C133.619 137.185 133.847 137.69 134.304 137.972C134.776 138.237 135.583 138.37 136.725 138.37C137.849 138.37 138.632 138.237 139.072 137.972C139.529 137.69 139.757 137.185 139.757 136.455V124.741H143.571V136.455C143.571 139.572 141.273 141.131 136.676 141.131Z" fill="#F8F7FC"/>
<path d="M114.726 124.741H120.93C122.393 124.741 123.518 124.859 124.304 125.095C125.106 125.314 125.672 125.676 126.003 126.181C126.333 126.669 126.498 127.359 126.498 128.251V130.272C126.498 130.726 126.325 131.156 125.979 131.56C125.649 131.964 125.255 132.241 124.799 132.393V132.519C125.397 132.587 125.94 132.864 126.427 133.353C126.93 133.824 127.182 134.354 127.182 134.944V137.469C127.182 138.799 126.687 139.742 125.696 140.297C124.705 140.853 123.172 141.131 121.096 141.131H114.726V124.741ZM120.93 131.408C121.512 131.408 121.945 131.358 122.228 131.257C122.511 131.156 122.7 130.996 122.794 130.777C122.904 130.541 122.959 130.204 122.959 129.767V128.959C122.959 128.571 122.912 128.285 122.818 128.1C122.723 127.898 122.527 127.755 122.228 127.671C121.945 127.586 121.489 127.544 120.86 127.544H118.406V131.408H120.93ZM121.025 138.328C121.921 138.328 122.558 138.218 122.936 137.999C123.313 137.78 123.502 137.427 123.502 136.939V135.625C123.502 135.019 123.352 134.59 123.054 134.337C122.771 134.085 122.259 133.959 121.52 133.959H118.406V138.328H121.025Z" fill="#F8F7FC"/>
<path d="M100.959 124.741H104.834V138.328H112.759V141.131H100.959V124.741Z" fill="#F8F7FC"/>
<path d="M88.5267 124.741H93.2164L98.9922 141.131H95.0923L93.6607 136.812H87.8109L86.4039 141.131H82.6028L88.5267 124.741ZM92.8215 134.186L90.7975 128.024H90.6988L88.6748 134.186H92.8215Z" fill="#F8F7FC"/>
<path d="M67.9801 141.131C66.5257 141.131 64.7273 140.984 62.5849 140.69V137.774C65.2434 138.199 67.0574 138.411 68.027 138.411C70.06 138.411 71.0765 137.864 71.0765 136.77V135.741C71.0765 135.218 70.9279 134.818 70.6308 134.541C70.3493 134.263 69.8332 134.124 69.0826 134.124H67.2998C63.9532 134.124 62.2799 132.736 62.2799 129.959V128.783C62.2799 127.395 62.8351 126.374 63.9454 125.721C65.0557 125.068 66.815 124.741 69.2233 124.741C70.4744 124.741 72.0617 124.847 73.9852 125.06V127.902C71.6238 127.608 69.9974 127.461 69.1061 127.461C67.8706 127.461 67.0418 127.567 66.6196 127.779C66.166 128.008 65.9393 128.367 65.9393 128.857V129.984C65.9393 130.817 66.6117 131.233 67.9566 131.233H69.7863C71.5222 131.233 72.7811 131.568 73.563 132.238C74.3449 132.907 74.7359 133.928 74.7359 135.3V136.353C74.7359 138.248 74.0869 139.53 72.7889 140.2C72.1634 140.543 71.4675 140.779 70.7012 140.91C69.9505 141.057 69.0435 141.131 67.9801 141.131Z" fill="#F8F7FC"/>
<path d="M50.5032 124.741H55.193L60.9687 141.131H57.0689L55.6372 136.812H49.7874L48.3805 141.131H44.5793L50.5032 124.741ZM54.798 134.186L52.774 128.024H52.6753L50.6513 134.186H54.798Z" fill="#F8F7FC"/>
<path d="M37.4937 141.131C36.7787 141.131 36.1368 141.098 35.568 141.033C35.0155 140.967 34.4061 140.845 33.7398 140.665C32.9923 140.469 32.3748 140.216 31.8873 139.906C31.3998 139.579 30.9935 139.13 30.6685 138.558C30.3272 137.987 30.1566 137.309 30.1566 136.525V129.543C30.1566 126.342 32.6023 124.741 37.4937 124.741C38.745 124.741 40.4188 124.921 42.5151 125.28V128.146C40.63 127.689 38.9725 127.461 37.5424 127.461C36.9412 127.461 36.4699 127.477 36.1287 127.51C35.8036 127.542 35.4624 127.624 35.1049 127.755C34.3411 128.016 33.9592 128.596 33.9592 129.494V136.255C33.9592 137.693 35.2674 138.411 37.8837 138.411C39.005 138.411 40.5813 138.175 42.6126 137.701V140.592C40.8738 140.951 39.1675 141.131 37.4937 141.131Z" fill="#F8F7FC"/>
<path d="M20.6385 141.131C16.0576 141.131 13.7672 139.572 13.7672 136.455V124.741H17.5819V136.455C17.5819 137.185 17.8101 137.69 18.2666 137.972C18.7393 138.237 19.5463 138.37 20.6874 138.37C21.8123 138.37 22.5948 138.237 23.0349 137.972C23.4914 137.69 23.7196 137.185 23.7196 136.455V124.741H27.5343V136.455C27.5343 139.572 25.2357 141.131 20.6385 141.131Z" fill="#F8F7FC"/>
<path d="M0 124.741H3.8755V138.328H11.8004V141.131H0V124.741Z" fill="#F8F7FC"/>
<path d="M219.839 155.458L216.959 150.551C216.751 150.776 216.533 151.005 216.305 151.239C216.087 151.474 215.86 151.708 215.622 151.942V155.458H214.33V145.064H215.622V150.46C216.553 149.492 217.33 148.575 217.953 147.708C218.577 146.842 219.107 145.961 219.542 145.064H220.938C220.493 145.961 220.027 146.776 219.542 147.51C219.067 148.233 218.523 148.957 217.909 149.68L221.413 155.458H219.839Z" fill="#B89EFF"/>
<path d="M207.347 151.375C207.347 152.305 207.53 153.023 207.896 153.528C208.272 154.023 208.847 154.27 209.619 154.27C209.955 154.27 210.287 154.231 210.614 154.151C210.94 154.072 211.331 153.934 211.787 153.736L212.217 154.834C211.732 155.052 211.272 155.211 210.836 155.31C210.401 155.409 209.98 155.458 209.574 155.458C208.406 155.458 207.52 155.092 206.916 154.359C206.312 153.627 206.01 152.632 206.01 151.375V149.147C206.01 147.89 206.312 146.895 206.916 146.163C207.52 145.43 208.406 145.064 209.574 145.064C209.98 145.064 210.401 145.113 210.836 145.212C211.282 145.311 211.732 145.47 212.188 145.688L211.772 146.801C210.97 146.445 210.252 146.267 209.619 146.267C208.847 146.267 208.272 146.514 207.896 147.009C207.53 147.504 207.347 148.217 207.347 149.147V151.375Z" fill="#B89EFF"/>
<path d="M203.536 155.458L202.779 153.043H198.948L198.191 155.458H196.929L200.285 145.064H201.502L204.873 155.458H203.536ZM199.884 150.047L199.319 151.835H202.393L201.829 150.047L200.864 146.837L199.884 150.047Z" fill="#B89EFF"/>
<path d="M190.227 146.317V145.064H197.399V146.317H194.458V155.458H193.167V146.317H190.227Z" fill="#B89EFF"/>
<path d="M186.16 154.3C186.784 154.3 187.264 154.166 187.6 153.899C187.937 153.622 188.105 153.221 188.105 152.696C188.105 152.261 187.986 151.894 187.749 151.597C187.521 151.3 187.145 151.073 186.62 150.914L185.418 150.558C184.665 150.33 184.111 149.989 183.754 149.533C183.398 149.068 183.22 148.499 183.22 147.826C183.22 147.311 183.319 146.846 183.517 146.43C183.725 146.014 184.051 145.683 184.497 145.435C184.952 145.188 185.546 145.064 186.279 145.064C186.724 145.064 187.185 145.118 187.66 145.227C188.135 145.326 188.615 145.49 189.1 145.717L188.684 146.831C188.209 146.623 187.779 146.475 187.392 146.386C187.016 146.287 186.655 146.237 186.308 146.237C185.744 146.237 185.304 146.356 184.987 146.593C184.68 146.821 184.527 147.202 184.527 147.737C184.527 148.123 184.631 148.449 184.838 148.717C185.046 148.974 185.418 149.187 185.952 149.355L187.155 149.712C188.66 150.157 189.412 151.117 189.412 152.592C189.412 153.444 189.155 154.137 188.64 154.671C188.125 155.196 187.298 155.458 186.16 155.458C185.695 155.458 185.2 155.404 184.675 155.295C184.16 155.176 183.626 154.993 183.071 154.745L183.472 153.647C183.997 153.884 184.467 154.052 184.883 154.151C185.309 154.25 185.734 154.3 186.16 154.3Z" fill="#B89EFF"/>
<path d="M182.108 154.22V155.458H176.585V145.064H177.876V154.22H182.108Z" fill="#B89EFF"/>
<path d="M174.597 154.22V155.458H169.073V145.064H170.365V154.22H174.597Z" fill="#B89EFF"/>
<path d="M159.237 145.064H160.573V151.632C160.573 152.455 160.742 153.098 161.078 153.56C161.425 154.022 161.959 154.253 162.682 154.253C163.414 154.253 163.949 154.022 164.285 153.56C164.622 153.098 164.79 152.455 164.79 151.632V145.064H166.127V151.632C166.127 152.827 165.84 153.766 165.265 154.449C164.691 155.122 163.83 155.458 162.682 155.458C161.524 155.458 160.657 155.122 160.083 154.449C159.519 153.766 159.237 152.827 159.237 151.632V145.064Z" fill="#B89EFF"/>
<path d="M156.922 151.086H153.254V155.458H151.962V145.064H157.367V146.317H153.254V149.833H156.922V151.086Z" fill="#B89EFF"/>
<path d="M136.341 151.392V155.458H135.049V145.064H138.212C139.162 145.064 139.895 145.324 140.409 145.844C140.934 146.353 141.196 147.036 141.196 147.892V148.549C141.196 149.16 141.058 149.69 140.781 150.139C140.513 150.587 140.127 150.918 139.622 151.132C140.048 151.835 140.444 152.549 140.81 153.272C141.177 153.996 141.513 154.724 141.82 155.458H140.335C139.771 154.072 139.113 152.717 138.36 151.392H136.341ZM138.212 146.287H136.341V150.169H138.212C138.717 150.169 139.118 150.027 139.415 149.741C139.711 149.446 139.86 149.048 139.86 148.549V147.892C139.86 147.382 139.711 146.99 139.415 146.715C139.118 146.429 138.717 146.287 138.212 146.287Z" fill="#B89EFF"/>
<path d="M133.504 149.147V151.36C133.504 152.617 133.188 153.617 132.554 154.359C131.93 155.092 131.029 155.458 129.851 155.458C128.673 155.458 127.768 155.092 127.134 154.359C126.51 153.617 126.199 152.617 126.199 151.36V149.147C126.199 147.9 126.51 146.91 127.134 146.178C127.768 145.435 128.673 145.064 129.851 145.064C131.029 145.064 131.93 145.435 132.554 146.178C133.188 146.91 133.504 147.9 133.504 149.147ZM132.168 149.147C132.168 148.227 131.97 147.519 131.574 147.024C131.188 146.519 130.614 146.267 129.851 146.267C129.099 146.267 128.525 146.519 128.129 147.024C127.733 147.519 127.535 148.227 127.535 149.147V151.36C127.535 152.29 127.733 153.008 128.129 153.513C128.525 154.018 129.099 154.27 129.851 154.27C130.614 154.27 131.188 154.018 131.574 153.513C131.97 153.008 132.168 152.29 132.168 151.36V149.147Z" fill="#B89EFF"/>
<path d="M118.332 155.458V145.064H121.465C122.623 145.064 123.514 145.426 124.138 146.149C124.761 146.863 125.073 147.851 125.073 149.115V151.392C125.073 152.666 124.761 153.665 124.138 154.388C123.514 155.101 122.623 155.458 121.465 155.458H118.332ZM121.435 146.317H119.624V154.22H121.435C122.97 154.22 123.737 153.277 123.737 151.392V149.115C123.737 147.25 122.97 146.317 121.435 146.317Z" fill="#B89EFF"/>
<path d="M116.107 154.22V155.458H110.465V145.064H115.959V146.317H111.757V149.573H115.513V150.827H111.757V154.22H116.107Z" fill="#B89EFF"/>
<path d="M108.397 145.064L105.175 155.458H103.868L100.631 145.064H101.997L103.601 150.337L104.566 153.67L105.546 150.322L107.12 145.064H108.397Z" fill="#B89EFF"/>
<path d="M100.255 154.22V155.458H94.731V145.064H96.0228V154.22H100.255Z" fill="#B89EFF"/>
<path d="M93.1863 149.147V151.36C93.1863 152.617 92.8695 153.617 92.2359 154.359C91.6123 155.092 90.7115 155.458 89.5335 155.458C88.3555 155.458 87.4497 155.092 86.8161 154.359C86.1925 153.617 85.8806 152.617 85.8806 151.36V149.147C85.8806 147.9 86.1925 146.91 86.8161 146.178C87.4497 145.435 88.3555 145.064 89.5335 145.064C90.7115 145.064 91.6123 145.435 92.2359 146.178C92.8695 146.91 93.1863 147.9 93.1863 149.147ZM91.8499 149.147C91.8499 148.227 91.6519 147.519 91.2559 147.024C90.8699 146.519 90.2957 146.267 89.5335 146.267C88.7811 146.267 88.207 146.519 87.811 147.024C87.415 147.519 87.217 148.227 87.217 149.147V151.36C87.217 152.29 87.415 153.008 87.811 153.513C88.207 154.018 88.7811 154.27 89.5335 154.27C90.2957 154.27 90.8699 154.018 91.2559 153.513C91.6519 153.008 91.8499 152.29 91.8499 151.36V149.147Z" fill="#B89EFF"/>
<path d="M84.7963 145.064L81.5741 155.458H80.2674L77.0304 145.064H78.3965L80.0001 150.337L80.9653 153.67L81.9453 150.322L83.5193 145.064H84.7963Z" fill="#B89EFF"/>
<path d="M68.1801 155.458V145.064H69.5313C70.4321 146.389 71.2587 147.724 72.0111 149.069C72.7733 150.404 73.486 151.8 74.1493 153.257L74.0008 149.283V145.064H75.2629V155.458H73.9117C73.2188 153.97 72.5011 152.523 71.7586 151.117C71.0261 149.701 70.2242 148.32 69.3531 146.975L69.4422 151.209V155.458H68.1801Z" fill="#B89EFF"/>
<path d="M65.9557 154.22V155.458H60.3131V145.064H65.8072V146.317H61.605V149.573H65.3617V150.827H61.605V154.22H65.9557Z" fill="#B89EFF"/>
<path d="M55.5348 154.3C56.1584 154.3 56.6385 154.166 56.9751 153.899C57.3117 153.622 57.4799 153.221 57.4799 152.696C57.4799 152.261 57.3612 151.894 57.1236 151.597C56.8959 151.3 56.5197 151.073 55.9951 150.914L54.7923 150.558C54.04 150.33 53.4856 149.989 53.1292 149.533C52.7729 149.068 52.5947 148.499 52.5947 147.826C52.5947 147.311 52.6937 146.846 52.8917 146.43C53.0995 146.014 53.4262 145.683 53.8717 145.435C54.327 145.188 54.921 145.064 55.6535 145.064C56.099 145.064 56.5593 145.118 57.0345 145.227C57.5096 145.326 57.9898 145.49 58.4748 145.717L58.0591 146.831C57.5839 146.623 57.1533 146.475 56.7672 146.386C56.391 146.287 56.0297 146.237 55.6832 146.237C55.119 146.237 54.6785 146.356 54.3617 146.593C54.0548 146.821 53.9014 147.202 53.9014 147.737C53.9014 148.123 54.0053 148.449 54.2132 148.717C54.4211 148.974 54.7923 149.187 55.3269 149.355L56.5296 149.712C58.0343 150.157 58.7866 151.117 58.7866 152.592C58.7866 153.444 58.5293 154.137 58.0145 154.671C57.4997 155.196 56.6732 155.458 55.5348 155.458C55.0695 155.458 54.5745 155.404 54.0499 155.295C53.5351 155.176 53.0006 154.993 52.4462 154.745L52.8471 153.647C53.3718 153.884 53.842 154.052 54.2578 154.151C54.6834 154.25 55.1091 154.3 55.5348 154.3Z" fill="#B89EFF"/>
<path d="M51.2052 154.22V155.458H45.5627V145.064H51.0567V146.317H46.8545V149.573H50.6113V150.827H46.8545V154.22H51.2052Z" fill="#B89EFF"/>
<path d="M36.7124 155.458V145.064H39.8455C41.0037 145.064 41.8946 145.426 42.5183 146.149C43.1419 146.863 43.4537 147.851 43.4537 149.115V151.392C43.4537 152.666 43.1419 153.665 42.5183 154.388C41.8946 155.101 41.0037 155.458 39.8455 155.458H36.7124ZM39.8158 146.317H38.0042V154.22H39.8158C41.3502 154.22 42.1173 153.277 42.1173 151.392V149.115C42.1173 147.25 41.3502 146.317 39.8158 146.317Z" fill="#B89EFF"/>
</svg>
